<?xml version="1.0" encoding="UTF-8" standalone="no"?>
<!-- Created with Inkscape (http://www.inkscape.org/) -->

<svg
   xmlns:dc="http://purl.org/dc/elements/1.1/"
   xmlns:cc="http://creativecommons.org/ns#"
   xmlns:rdf="http://www.w3.org/1999/02/22-rdf-syntax-ns#"
   xmlns:svg="http://www.w3.org/2000/svg"
   xmlns="http://www.w3.org/2000/svg"
   xmlns:sodipodi="http://sodipodi.sourceforge.net/DTD/sodipodi-0.dtd"
   xmlns:inkscape="http://www.inkscape.org/namespaces/inkscape"
   width="210mm"
   height="297mm"
   viewBox="0 0 210 297"
   version="1.1"
   id="svg2210"
   inkscape:version="0.92.3 (2405546, 2018-03-11)"
   sodipodi:docname="schemat.svg">
  <defs
     id="defs2204" />
  <sodipodi:namedview
     id="base"
     pagecolor="#ffffff"
     bordercolor="#666666"
     borderopacity="1.0"
     inkscape:pageopacity="0.0"
     inkscape:pageshadow="2"
     inkscape:zoom="1.4"
     inkscape:cx="244.43086"
     inkscape:cy="527.41125"
     inkscape:document-units="mm"
     inkscape:current-layer="layer1"
     showgrid="false"
     showguides="true"
     inkscape:guide-bbox="true"
     inkscape:window-width="1920"
     inkscape:window-height="1021"
     inkscape:window-x="0"
     inkscape:window-y="27"
     inkscape:window-maximized="1" />
  <metadata
     id="metadata2207">
    <rdf:RDF>
      <cc:Work
         rdf:about="">
        <dc:format>image/svg+xml</dc:format>
        <dc:type
           rdf:resource="http://purl.org/dc/dcmitype/StillImage" />
        <dc:title></dc:title>
      </cc:Work>
    </rdf:RDF>
  </metadata>
  <g
     inkscape:label="Layer 1"
     inkscape:groupmode="layer"
     id="layer1">
    <rect
       style="opacity:1;fill:none;fill-opacity:1;stroke:#000000;stroke-width:1.99999988;stroke-miterlimit:4;stroke-dasharray:15.99999966, 2.00000004;stroke-dashoffset:0;stroke-opacity:1"
       id="rect2755"
       width="58"
       height="88"
       x="61.610119"
       y="127.73514"
       rx="1.0000006"
       ry="1.0000007" />
    <path
       style="fill:none;stroke:#000000;stroke-width:0.24999999;stroke-linecap:butt;stroke-linejoin:miter;stroke-miterlimit:4;stroke-dasharray:none;stroke-opacity:1"
       d="m 48.85902,164.78537 h 14.774703 l 1.470796,-1.55093 0.935928,1.55093 0.935957,1.6266 1.203366,-1.6266 1.403933,-1.5131 1.002817,1.5131 0.935957,1.58877 1.203368,-1.58877 1.671347,-1.43745 1.002801,1.43745 0.802246,1.70226 1.069662,-1.70226 1.136516,-1.39962 1.002811,1.39962 1.069654,1.55095 1.06968,-1.55095 h 8.557309 c -1.648635,-0.69962 -1.648635,-0.69962 0,0"
       id="path2809"
       inkscape:connector-curvature="0"
       sodipodi:nodetypes="cccccccccccccccccccc" />
    <path
       style="fill:none;stroke:#000000;stroke-width:0.24999999;stroke-linecap:butt;stroke-linejoin:miter;stroke-miterlimit:4;stroke-dasharray:none;stroke-opacity:1"
       d="m 49.16361,188.18736 h 14.665847 l 1.459957,-1.18024 0.929033,1.18024 0.92906,1.23783 1.194499,-1.23783 1.393588,-1.15146 0.995429,1.15146 0.929061,1.20904 1.194502,-1.20904 1.659033,-1.09389 0.995413,1.09389 0.796335,1.2954 1.061782,-1.2954 1.128142,-1.0651 0.995421,1.0651 1.061772,1.18025 1.061801,-1.18025 h 8.494262 c -1.636497,-0.53241 -1.636497,-0.53241 0,0"
       id="path2809-3"
       inkscape:connector-curvature="0"
       sodipodi:nodetypes="cccccccccccccccccccc" />
    <circle
       style="opacity:1;fill:none;fill-opacity:1;stroke:#000000;stroke-width:0.25;stroke-miterlimit:4;stroke-dasharray:none;stroke-dashoffset:0;stroke-opacity:1"
       id="path2826"
       cx="92.415176"
       cy="164.89732"
       r="5.1026788" />
    <path
       style="fill:none;stroke:#000000;stroke-width:0.26458332px;stroke-linecap:butt;stroke-linejoin:miter;stroke-opacity:1"
       d="m 90.103237,162.4632 v 3.97563 -0.0334 0.16704"
       id="path2854"
       inkscape:connector-curvature="0" />
    <path
       style="fill:none;stroke:#000000;stroke-width:0.26458332px;stroke-linecap:butt;stroke-linejoin:miter;stroke-opacity:1"
       d="m 90.103237,166.40543 2.772923,3.57473 v 0 l -0.06682,13.36347"
       id="path2858"
       inkscape:connector-curvature="0" />
    <path
       style="fill:none;stroke:#000000;stroke-width:0.26458332px;stroke-linecap:butt;stroke-linejoin:miter;stroke-opacity:1"
       d="m 90.103237,163.38541 2.706102,-3.5199"
       id="path2860"
       inkscape:connector-curvature="0" />
    <path
       style="fill:none;stroke:#000000;stroke-width:0.26458332px;stroke-linecap:butt;stroke-linejoin:miter;stroke-opacity:1"
       d="m 92.809337,159.86314 0.02285,-11.98228 1.347808,-0.5393 -1.345834,-0.48757 -1.16847,-0.36934 1.17015,-0.50975 0.756766,-0.37673 -0.755257,-0.43586 -1.168559,-0.45803 1.193826,-0.36937 1.359313,-0.40462 -1.381074,-0.61483 -1.13313,-0.46539 2.410699,-0.79786 -1.27472,-0.19944 0.0076,-3.9968 0.0053,-2.768 0.05467,-12.97283 -0.02362,0.0473"
       id="path2862"
       inkscape:connector-curvature="0"
       sodipodi:nodetypes="ccccccccccccccccc" />
    <circle
       style="opacity:1;fill:none;fill-opacity:1;stroke:#000000;stroke-width:0.25;stroke-miterlimit:4;stroke-dasharray:none;stroke-dashoffset:0;stroke-opacity:1"
       id="path2826-7"
       cx="92.415184"
       cy="188.37546"
       r="5.1026788" />
    <path
       style="fill:none;stroke:#000000;stroke-width:0.26458332px;stroke-linecap:butt;stroke-linejoin:miter;stroke-opacity:1"
       d="m 90.10324,185.94132 v 3.97563 -0.0334 0.16704"
       id="path2854-5"
       inkscape:connector-curvature="0" />
    <path
       style="fill:none;stroke:#000000;stroke-width:0.26458332px;stroke-linecap:butt;stroke-linejoin:miter;stroke-opacity:1"
       d="m 90.10324,189.88355 2.77292,3.57473 v 0 l -0.0668,13.36347"
       id="path2858-3"
       inkscape:connector-curvature="0" />
    <path
       style="fill:none;stroke:#000000;stroke-width:0.26458332px;stroke-linecap:butt;stroke-linejoin:miter;stroke-opacity:1"
       d="m 90.10324,186.86353 2.7061,-3.5199"
       id="path2860-5"
       inkscape:connector-curvature="0" />
    <path
       style="fill:#040000;stroke:#000011;stroke-width:0.26458332px;stroke-linecap:butt;stroke-linejoin:miter;stroke-opacity:1;fill-opacity:1"
       d="m 92.87616,169.98016 -0.271994,-1.39757 -0.921316,0.82682 z"
       id="path2904"
       inkscape:connector-curvature="0" />
    <path
       style="fill:#040000;fill-opacity:1;stroke:#000011;stroke-width:0.26458332px;stroke-linecap:butt;stroke-linejoin:miter;stroke-opacity:1"
       d="m 92.87616,193.45828 -0.27199,-1.39757 -0.92132,0.82682 z"
       id="path2904-6"
       inkscape:connector-curvature="0" />
    <path
       style="fill:#040000;fill-opacity:1;stroke:#000011;stroke-width:0.26458332px;stroke-linecap:butt;stroke-linejoin:miter;stroke-opacity:1"
       d="m 92.911275,122.11514 -0.69169,1.24449 1.237292,-0.0395 z"
       id="path2904-6-2"
       inkscape:connector-curvature="0" />
  </g>
</svg>
